<svg xmlns="http://www.w3.org/2000/svg" viewBox="0 0 400 120" height="120" width="400">
  
  <defs>
    <linearGradient y2="0%" x2="100%" y1="0%" x1="0%" id="woodGrain">
      <stop style="stop-color:#8B4513;stop-opacity:1" offset="0%"></stop>
      <stop style="stop-color:#A0522D;stop-opacity:1" offset="15%"></stop>
      <stop style="stop-color:#8B4513;stop-opacity:1" offset="30%"></stop>
      <stop style="stop-color:#CD853F;stop-opacity:1" offset="45%"></stop>
      <stop style="stop-color:#8B4513;stop-opacity:1" offset="60%"></stop>
      <stop style="stop-color:#A0522D;stop-opacity:1" offset="75%"></stop>
      <stop style="stop-color:#8B4513;stop-opacity:1" offset="100%"></stop>
    </linearGradient>
    
    <linearGradient y2="100%" x2="0%" y1="0%" x1="0%" id="edgeShading">
      <stop style="stop-color:#654321;stop-opacity:1" offset="0%"></stop>
      <stop style="stop-color:#8B4513;stop-opacity:1" offset="10%"></stop>
      <stop style="stop-color:#8B4513;stop-opacity:1" offset="90%"></stop>
      <stop style="stop-color:#4A2C17;stop-opacity:1" offset="100%"></stop>
    </linearGradient>
    
    
    <filter height="200%" width="200%" y="-50%" x="-50%" id="textShadow">
      
    </filter>
    
    
    <pattern patternUnits="userSpaceOnUse" height="8" width="40" y="0" x="0" id="woodTexture">
      <rect fill="url(#woodGrain)" height="8" width="40"></rect>
      <ellipse opacity="0.3" fill="#654321" ry="1" rx="15" cy="4" cx="20"></ellipse>
      <ellipse opacity="0.4" fill="#4A2C17" ry="0.5" rx="8" cy="6" cx="35"></ellipse>
    </pattern>
  </defs>
  
  
  <rect stroke-width="2" stroke="#4A2C17" fill="url(#woodTexture)" ry="8" rx="8" height="80" width="360" y="20" x="20"></rect>
  
  
  <line opacity="0.6" stroke-width="1" stroke="#654321" y2="32" x2="375" y1="30" x1="25"></line>
  <line opacity="0.4" stroke-width="0.5" stroke="#4A2C17" y2="47" x2="375" y1="45" x1="25"></line>
  <line opacity="0.5" stroke-width="1" stroke="#654321" y2="58" x2="375" y1="60" x1="25"></line>
  <line opacity="0.3" stroke-width="0.5" stroke="#4A2C17" y2="77" x2="375" y1="75" x1="25"></line>
  <line opacity="0.4" stroke-width="1" stroke="#654321" y2="88" x2="375" y1="90" x1="25"></line>
  
  
  <g stroke-width="1" stroke="#1A1A1A" fill="#2F2F2F">
    
    <path d="M 30 25 L 45 25 L 45 30 L 35 30 L 35 40 L 30 40 Z"></path>
    
    <path d="M 370 25 L 355 25 L 355 30 L 365 30 L 365 40 L 370 40 Z"></path>
    
    <path d="M 30 95 L 45 95 L 45 90 L 35 90 L 35 80 L 30 80 Z"></path>
    
    <path d="M 370 95 L 355 95 L 355 90 L 365 90 L 365 80 L 370 80 Z"></path>
  </g>
  
  
  <g fill="#1A1A1A">
    <circle r="1" cy="27" cx="32"></circle>
    <circle r="1" cy="37" cx="32"></circle>
    <circle r="1" cy="27" cx="368"></circle>
    <circle r="1" cy="37" cx="368"></circle>
    <circle r="1" cy="83" cx="32"></circle>
    <circle r="1" cy="93" cx="32"></circle>
    <circle r="1" cy="83" cx="368"></circle>
    <circle r="1" cy="93" cx="368"></circle>
  </g>
  
  
  <ellipse opacity="0.6" fill="#654321" ry="6" rx="8" cy="50" cx="100"></ellipse>
  <ellipse opacity="0.8" fill="#4A2C17" ry="3" rx="4" cy="50" cx="100"></ellipse>
  <ellipse opacity="0.5" fill="#654321" ry="4" rx="6" cy="70" cx="320"></ellipse>
  <ellipse opacity="0.7" fill="#4A2C17" ry="2" rx="3" cy="70" cx="320"></ellipse>
  
  
  <text filter="url(#textShadow)" fill="#F4E4BC" text-anchor="middle" font-weight="bold" font-size="28" font-family="serif" y="70" x="200">
    Getting Started
  </text>
  
  
  <rect opacity="0.3" stroke-width="1" stroke="#CD853F" fill="none" ry="6" rx="6" height="76" width="356" y="22" x="22"></rect>
</svg>